<?xml version="1.0" encoding="utf-8"?>
<svg xmlns="http://www.w3.org/2000/svg" viewBox="-0.227 -0.227 49.454 23.077">
  <defs>
    <style>
      .a { fill: #fff; }
      .b { fill: #f48120; }
      .c { fill: #faad3f; }
    </style>
  </defs>
  <path class="a" d="M 44.057 10.997 L 38.457 9.697 L 37.457 9.297 L 11.757 9.497 L 11.757 21.897 L 44.057 21.997 L 44.057 10.997 Z"/>
  <path class="b" d="M 33.557 20.797 C 33.883 19.932 33.771 18.964 33.257 18.197 C 32.73 17.566 31.975 17.17 31.157 17.097 L 13.757 16.897 C 13.657 16.897 13.557 16.797 13.457 16.797 C 13.357 16.722 13.357 16.572 13.457 16.497 C 13.557 16.297 13.657 16.197 13.857 16.197 L 31.357 15.997 C 33.619 15.745 35.569 14.292 36.457 12.197 L 37.457 9.597 C 37.457 9.497 37.557 9.397 37.457 9.297 C 35.535 0.737 25.067 -2.533 18.615 3.411 C 17.222 4.695 16.171 6.305 15.557 8.097 C 14.512 7.35 13.237 6.996 11.957 7.097 C 9.537 7.366 7.626 9.277 7.357 11.697 C 7.29 12.298 7.324 12.906 7.457 13.497 C 3.504 13.606 0.356 16.842 0.357 20.797 C 0.34 21.166 0.374 21.536 0.457 21.897 C 0.466 22.058 0.595 22.187 0.757 22.197 L 32.857 22.197 C 33.057 22.197 33.257 22.097 33.257 21.897 L 33.557 20.797 Z"/>
  <path class="c" d="M 39.057 9.597 L 38.557 9.597 C 38.457 9.597 38.357 9.697 38.257 9.797 L 37.557 12.197 C 37.23 13.061 37.342 14.029 37.857 14.797 C 38.383 15.427 39.138 15.823 39.957 15.897 L 43.657 16.097 C 43.757 16.097 43.857 16.197 43.957 16.197 C 44.057 16.272 44.057 16.422 43.957 16.497 C 43.857 16.697 43.757 16.797 43.557 16.797 L 39.757 16.997 C 37.494 17.248 35.544 18.701 34.657 20.797 L 34.457 21.697 C 34.357 21.797 34.457 21.997 34.657 21.997 L 47.857 21.997 C 48.032 22.022 48.182 21.872 48.157 21.697 C 48.395 20.849 48.529 19.976 48.557 19.097 C 48.524 13.864 44.29 9.63 39.057 9.597"/>
</svg>