<?xml version="1.0" encoding="utf-8"?>
<!-- Generator: Adobe Illustrator 26.4.1, SVG Export Plug-In . SVG Version: 6.00 Build 0)  -->
<svg version="1.0" id="katman_1" xmlns="http://www.w3.org/2000/svg" xmlns:xlink="http://www.w3.org/1999/xlink" x="0px" y="0px"
	 viewBox="0 0 400 400" style="enable-background:new 0 0 400 400;" xml:space="preserve">
<style type="text/css">
	.st0{fill:#00AEEF;}
	.st1{opacity:0.8;fill:#FFFFFF;enable-background:new    ;}
	.st2{fill:#FFFFFF;}
</style>
<path class="st0" d="M50,0h300c27.61,0,50,22.39,50,50v300c0,27.61-22.39,50-50,50H50c-27.61,0-50-22.39-50-50V50
	C0,22.39,22.39,0,50,0z"/>
<path class="st1" d="M153.12,112.5c-51.78,0-93.75,41.97-93.75,93.75S101.34,300,153.12,300s93.75-41.97,93.75-93.75
	C246.85,154.48,204.89,112.52,153.12,112.5z M153.12,234.38c-15.54,0-28.13-12.59-28.13-28.13c0-15.54,12.59-28.13,28.13-28.13
	s28.13,12.59,28.13,28.13c0.02,15.51-12.54,28.11-28.05,28.13C153.17,234.38,153.15,234.38,153.12,234.38z"/>
<path class="st2" d="M258.5,182.81c23.82,6.85,51.94,0,51.94,0c-8.16,35.63-34,57.94-71.35,60.66c-14.8,34.34-48.61,56.56-86,56.53
	l28.13-89.39c28.91-91.89,43.73-98.11,112.3-98.11h47.08C332.75,147.19,305.61,173.69,258.5,182.81z"/>
</svg>
