<?xml version="1.0" encoding="utf-8"?>
<svg viewBox="-0.366 0 14.779 27.414" fill="none" xmlns="http://www.w3.org/2000/svg">
  <path d="M14.05 8.112L7.024 4.056 0 8.112V4.056L7.025 0l7.026 4.056v4.056h-.001z" fill="#A435F0"/>
  <g>
    <path d="M 0 11.518 L 3.6799999999999997 11.518 L 3.6799999999999997 20.459000000000003 C 3.6799999999999997 22.769000000000002 5.404999999999999 23.895000000000003 7.0249999999999995 23.895000000000003 C 8.658999999999999 23.895000000000003 10.370999999999999 22.739000000000004 10.370999999999999 20.428000000000004 L 10.370999999999999 11.518000000000004 L 14.050999999999998 11.518000000000004 L 14.050999999999998 20.672000000000004 C 14.050999999999998 22.800000000000004 13.381999999999998 24.442000000000004 12.043999999999999 25.568000000000005 C 10.704999999999998 26.693000000000005 9.032999999999998 27.241000000000007 6.993999999999999 27.241000000000007 C 4.956999999999999 27.241000000000007 3.283999999999999 26.694000000000006 1.9769999999999985 25.568000000000005 C 0.6689999999999998 24.443 0 22.862000000000002 0 20.763 L 0 11.518000000000002 L 0 11.518 Z" fill="#000"/>
  </g>
</svg>