<svg viewBox="0 0 512 512" xmlns="http://www.w3.org/2000/svg" fill-rule="evenodd" clip-rule="evenodd" stroke-linejoin="round" stroke-miterlimit="2"><g transform="translate(6 41.179) scale(8.92857)"><clipPath id="prefix__a"><path d="M0 0h56v48.12H0z"/></clipPath><g clip-path="url(#prefix__a)"><path d="M19.507 1.333A2.793 2.793 0 0017.147 0H2.8A2.813 2.813 0 000 2.8c0 .528.148 1.045.427 1.493L4.12 9.72l18.467-4-3.08-4.387z" fill="#c9f4ff" fill-rule="nonzero"/><path d="M22.667 5.827a2.814 2.814 0 00-2.374-1.334H6a2.8 2.8 0 00-2.915 2.784c0 .546.16 1.08.462 1.536l4.12 6.534 19.08-2.987-4.08-6.533z" fill="#51b9ff" fill-rule="nonzero"/><path d="M7.493 15.08a2.855 2.855 0 01-.253-2.507 2.818 2.818 0 012.667-1.786H24.2c.968.004 1.867.509 2.373 1.333l12.84 20.36a2.828 2.828 0 010 2.987L32.24 46.84a2.815 2.815 0 01-4.747 0l-20-31.76zM43.653 21.587a2.815 2.815 0 004.747 0l2.467-3.907 4.706-7.467a2.828 2.828 0 000-2.986L51.84 1.333A2.814 2.814 0 0049.467 0H35.12a2.813 2.813 0 00-2.8 2.8c-.005.53.148 1.05.44 1.493l10.893 17.294z" fill="#007bfc" fill-rule="nonzero"/></g></g></svg>