<svg viewBox="0 0 512 512" xmlns="http://www.w3.org/2000/svg" fill-rule="evenodd" clip-rule="evenodd" stroke-linejoin="round" stroke-miterlimit="2"><path d="M159.142 314.83c-4.796-7.575-8.728-11.595-15.703-11.595-6.987 0-10.906 4.02-15.715 11.595l-20.936 33.459c-7.851 12.922-14.4 21.85-29.677 21.85-15.264 0-22.25-6.248-29.664-23.64-9.166-21.413-18.757-47.27-27.485-82.069C10.358 225.625 6 201.546 6 181.924c0-19.634 6.11-31.23 27.047-35.236 28.8-5.36 67.63-8.478 110.392-8.478 42.75 0 81.58 3.118 110.38 8.478 20.936 4.007 27.047 15.602 27.047 35.236 0 19.622-4.358 43.701-13.962 82.506-8.727 34.798-18.32 60.656-27.485 82.068-7.413 17.393-14.4 23.641-29.664 23.641-15.277 0-21.813-8.928-29.677-21.85l-20.936-33.459zm332.028 31.305c-14.839 16.053-42.762 27.648-79.414 27.648-73.728 0-117.366-51.29-117.366-118.631 0-72.251 50.174-115.063 115.188-115.063 58.026 0 96.417 30.766 96.417 72.25 0 39.244-32.719 64.663-69.809 64.663-20.06 0-34.898-4.007-44.928-12.033-3.932-3.13-6.11-2.68-6.11.889 0 14.713 5.234 27.21 14.825 37.014 7.864 8.027 22.69 13.386 36.652 13.386 14.4 0 27.06-3.13 38.404-8.928 11.332-5.798 20.937-4.007 26.609 5.36 6.549 10.705-2.617 24.53-10.468 33.445z"/></svg>